<?xml version="1.0" encoding="UTF-8"?><svg id="a" xmlns="http://www.w3.org/2000/svg" viewBox="0 0 58.29 36.91"><path d="M30.14,0c-3.47,0-6.29,2.87-6.29,6.34h28.15c3.47,0,6.29-2.87,6.29-6.34H30.14Z"/><path d="M6.29,0C2.82,0,0,2.87,0,6.34H14.6c3.47,0,6.29-2.87,6.29-6.34H6.29Z"/><path d="M44.73,28.32V13.19c0-3.78-3.12-6.86-6.9-6.86V30.51c0,4.81,4.08,6.4,6.6,6.4,2.09,0,3.27-.36,4.69-1.36-3.98-.42-4.39-2.82-4.39-7.23Z"/><path d="M20.84,28.32V13.19c0-3.78-3.12-6.86-6.9-6.86V30.51c0,4.81,4.08,6.4,6.6,6.4,2.09,0,3.27-.36,4.69-1.36-3.98-.42-4.39-2.82-4.39-7.23Z"/></svg>