<?xml version="1.0" encoding="UTF-8"?>
<svg id="b" data-name="White" xmlns="http://www.w3.org/2000/svg" viewBox="0 0 838.302 169.923">
  <defs>
    <style>
      .c {
        fill: #fff;
      }
    </style>
  </defs>
  <path class="c" d="M631.462,103.772c-1.06,0-1.829-.671-1.829-1.597v-27.037c0-13.322-7.764-20.364-22.452-20.364-13.318,0-22.739,7.452-24.001,18.986l-.061.554h10.754l.057-.436c.87-6.718,5.529-10.269,13.474-10.269,7.254,0,11.584,3.485,11.584,9.322,0,2.102-.557,4.597-4.885,5.242l-12.088,1.546c-9.648,1.288-20.723,4.453-20.723,17.601,0,10.134,7.73,16.943,19.236,16.943,4.696,0,13.194-1.15,19.016-8.573.099,4.409,3.414,7.138,8.702,7.138h7.152v-9.057h-3.937ZM618.987,84.544v3.175c0,10.757-6.288,17.708-16.02,17.708-6.629,0-10.587-3.196-10.587-8.549s3.488-8.153,11.662-9.438l9.877-1.547c1.654-.291,3.358-.59,5.067-1.35Z"/>
  <path class="c" d="M379.103,134.78c0-4.67,3.786-8.456,8.456-8.456h1.903c3.692,0,5.479-.834,6.909-4.407l2.977-7.978-24.177-58.95h11.314l17.983,45.493,16.911-45.493h10.955l-27.033,70.501c-2.858,7.741-7.384,9.29-14.41,9.29h-11.789Z"/>
  <path class="c" d="M717.006,94.489c-1.926,7.059-6.503,10.638-13.605,10.638-7.793,0-16.119-5.449-16.119-20.742,0-15.13,8.326-20.521,16.119-20.521,7.021,0,12.104,4.458,13.598,11.925l.08.402h10.779l-.079-.569c-1.784-12.825-11.083-20.792-24.268-20.792-16.042,0-27.245,12.199-27.245,29.666s11.158,29.667,27.135,29.667c12.948,0,22.019-7.271,24.266-19.45l.108-.591h-10.668l-.101.369Z"/>
  <path class="c" d="M506.04,84.162c-3.819-2.495-9.652-4.14-17.831-5.029-6.095-.659-9.983-1.592-12.235-2.937-1.86-1.111-2.653-2.516-2.653-4.697,0-1.791.915-7.634,12.695-7.634,4.555,0,8.025,1.178,10.315,3.501,2.172,2.203,2.712,4.909,2.841,6.325l.006.065h10.955l-.006-.077c-.414-5.681-2.7-10.51-6.609-13.966-4.184-3.699-10.117-5.654-17.157-5.654-15.905,0-24.226,9.178-24.226,18.245,0,4.274,1.469,7.808,4.365,10.505,3.398,3.164,8.762,5.149,15.943,5.9,7.43.762,11.552,1.535,14.227,2.669,2.844,1.205,4.111,2.913,4.111,5.541,0,1.535-.509,3.736-2.932,5.506-2.456,1.794-6.283,2.703-11.373,2.703-11.808,0-15.123-7.628-15.226-11.662l-.002-.07h-10.957l.004.075c.594,13.439,10.21,21.463,25.721,21.463,7.874,0,14.452-1.855,19.022-5.363,4.533-3.48,6.93-8.452,6.93-14.377,0-4.817-1.939-8.425-5.927-11.03ZM463.087,67.254c.655-1.943,1.684-3.676,3.004-5.193-1.356,1.609-2.359,3.369-3.004,5.193Z"/>
  <path class="c" d="M545.488,54.058c-16.77,0-28.482,12.516-28.482,30.437,0,8.436,2.626,16.066,7.394,21.484,5.153,5.857,12.525,8.953,21.318,8.953,7.058,0,12.967-2.13,17.561-6.331,3.959-3.621,6.741-8.65,8.044-14.545l.019-.087h-11.53l-.015.051c-2.246,7.363-6.517,10.646-13.848,10.646-5.052,0-9.42-1.713-12.63-4.953-2.959-2.987-4.817-7.22-5.235-11.926h43.919l.011-.059c.246-1.355.346-2.525.346-4.039,0-9.591-2.941-17.434-8.506-22.683-4.752-4.482-11.274-6.95-18.366-6.95ZM546.063,63.864c4.294,0,7.975,1.42,10.646,4.105,2.56,2.575,4.101,6.195,4.459,10.474h-32.5c1.375-6.672,5.513-14.579,17.395-14.579Z"/>
  <path class="c" d="M83.041,54.004c-5.375,0-10.377,1.842-14.087,5.187-3.39,3.057-5.59,8.037-6.272,12.718v-16.987h-11.163v58.913h11.163v-28.463c0-8.168,3.064-13.226,5.634-16.03,3.234-3.529,7.598-5.553,11.971-5.553,4.262,0,7.404,1.17,9.603,3.578,2.604,2.85,3.869,7.363,3.869,13.797v32.67h11.163v-34.966c0-8.368-1.967-14.728-5.845-18.902-3.676-3.957-9.072-5.963-16.037-5.963Z"/>
  <g>
    <circle cx="143.157" cy="84.291" r="22.334"/>
    <path class="c" d="M142.598,54.018c-8.528,0-15.793,3.097-21.009,8.956-4.9,5.503-7.598,13.136-7.598,21.492s2.698,15.989,7.598,21.492c5.216,5.859,12.481,8.956,21.009,8.956s15.793-3.097,21.01-8.956c4.899-5.503,7.598-13.136,7.598-21.492s-2.699-15.989-7.598-21.492c-5.216-5.859-12.482-8.956-21.01-8.956ZM125.182,84.466c0-5.573,1.629-10.639,4.586-14.265,3.156-3.869,7.593-5.914,12.831-5.914s9.676,2.045,12.831,5.914c2.958,3.626,4.586,8.692,4.586,14.265s-1.629,10.639-4.586,14.265c-3.155,3.869-7.593,5.914-12.831,5.914s-9.675-2.045-12.831-5.914c-2.957-3.626-4.586-8.692-4.586-14.265Z"/>
    <path class="c" d="M143.362,64.287c-4.968,0-10.191,2.672-10.191,8.839,0,6.466,3.82,11.052,9.987,11.165h0c6.166.113,11.073,5.203,10.96,11.37-.113,6.166-5.203,11.073-11.37,10.96-12.333-.226-22.147-10.407-21.921-22.739.226-12.333,10.407-22.147,22.739-21.921"/>
    <circle class="c" cx="142.952" cy="73.126" r="3.472"/>
    <circle cx="142.952" cy="95.456" r="3.472"/>
  </g>
  <polygon class="c" points="219.344 55.333 203.07 102.445 186.845 55.467 186.798 55.333 175.463 55.333 196.684 113.458 196.732 113.59 209.525 113.59 230.695 55.601 230.793 55.333 219.344 55.333"/>
  <path class="c" d="M262.835,54.018c-16.781,0-28.501,12.525-28.501,30.458,0,8.441,2.628,16.076,7.399,21.499,5.157,5.861,12.533,8.959,21.332,8.959,7.063,0,12.975-2.131,17.572-6.335,3.962-3.623,6.746-8.656,8.049-14.554l.019-.087h-11.538l-.015.051c-2.247,7.368-6.521,10.653-13.857,10.653-5.056,0-9.426-1.714-12.638-4.957-2.961-2.989-4.82-7.225-5.238-11.934h43.948l.011-.059c.246-1.356.347-2.526.347-4.041,0-9.597-2.943-17.446-8.511-22.698-4.755-4.485-11.282-6.954-18.379-6.954ZM263.411,63.83c4.297,0,7.98,1.421,10.653,4.108,2.562,2.576,4.104,6.199,4.462,10.481h-32.521c1.376-6.677,5.517-14.589,17.406-14.589Z"/>
  <rect class="c" x="298.325" y="38.634" width="11.163" height="75.233"/>
  <g>
    <path class="c" d="M325.276,54.989c-5.533,0-10.035,4.572-10.035,10.105h44.895c5.533,0,10.035-4.572,10.035-10.105h-44.895Z"/>
    <path class="c" d="M348.545,100.162l-.005-24.127c0-6.033-4.975-10.94-11.003-10.94v38.564c0,7.67,6.511,10.207,10.534,10.207,3.332,0,5.214-.578,7.473-2.176-6.345-.669-6.998-4.499-6.998-11.528Z"/>
  </g>
  <path class="c" d="M673.983,54.039c-6.072,0-10.903,1.825-14.358,5.424-2.797,2.913-4.6,6.964-5.254,11.774v-16.277h-11.187v59.035h11.187v-27.219c0-8.537,1.709-14.106,5.379-17.524,3.227-3.005,7.881-4.244,14.227-3.796l.077.006v-11.421h-.072Z"/>
  <path class="c" d="M765.908,54.018c-5.373,0-10.374,1.842-14.083,5.185-3.39,3.057-5.589,8.035-6.27,12.715v-33.26h-11.16v75.173h11.16v-28.455c0-8.166,3.063-13.222,5.632-16.025,3.233-3.528,7.595-5.551,11.967-5.551,4.261,0,7.401,1.17,9.6,3.577,2.603,2.849,3.868,7.361,3.868,13.793v32.661h11.16v-34.956c0-8.366-1.966-14.723-5.843-18.896-3.675-3.956-9.069-5.961-16.032-5.961Z"/>
</svg>