<?xml version="1.0" encoding="UTF-8"?>
<svg id="a" data-name="Layer_1" xmlns="http://www.w3.org/2000/svg" viewBox="0 0 175.435 68.518">
  <defs>
    <style>
      .h {
        fill-rule: evenodd;
      }
    </style>
  </defs>
  <path id="b" data-name="o" d="M136.387,17.289c-4.645,0-8.602,1.687-11.444,4.878-2.669,2.997-4.139,7.155-4.139,11.707s1.47,8.709,4.139,11.707c2.841,3.191,6.798,4.878,11.444,4.878s8.603-1.687,11.444-4.878c2.669-2.998,4.139-7.155,4.139-11.707s-1.47-8.709-4.139-11.707c-2.841-3.191-6.799-4.878-11.444-4.878ZM126.9,33.874c0-3.036.887-5.795,2.498-7.77,1.719-2.107,4.136-3.221,6.989-3.221s5.27,1.114,6.989,3.221c1.611,1.975,2.498,4.734,2.498,7.77s-.887,5.795-2.498,7.77c-1.719,2.107-4.136,3.221-6.989,3.221s-5.27-1.114-6.989-3.221c-1.611-1.975-2.498-4.735-2.498-7.77Z"/>
  <path id="c" data-name="a" d="M115.358,44.865c-.687,0-1.186-.444-1.186-1.055v-15.215c0-7.395-4.315-11.303-12.479-11.303-7.409,0-12.649,4.139-13.351,10.544l-.016.139h5.739l.015-.109c.502-3.87,3.177-5.915,7.737-5.915,4.18,0,6.676,2.02,6.676,5.402,0,1.148-.3,2.719-2.886,3.105l-6.801.87c-5.366.717-11.526,2.472-11.526,9.75,0,5.609,4.287,9.378,10.669,9.378,2.689,0,7.618-.676,10.855-5.133v.351c0,2.452,1.817,3.975,4.742,3.975h3.868v-4.784h-2.059ZM108.495,33.643v2.032c0,6.054-3.686,10.122-9.171,10.122-3.828,0-6.114-1.857-6.114-4.967,0-3.094,2.002-4.729,6.695-5.466l5.555-.87c.993-.174,2.018-.354,3.035-.851Z"/>
  <g id="d" data-name="t">
    <path d="M62.116,17.289c-3.117,0-5.652,2.575-5.652,5.692h25.289c3.117,0,5.652-2.575,5.652-5.692h-25.289Z"/>
    <path d="M75.223,42.733l-.003-13.59c0-3.398-2.802-6.163-6.198-6.163v21.723c0,4.32,3.667,5.749,5.933,5.749,1.877,0,2.937-.326,4.209-1.226-3.574-.377-3.942-2.534-3.942-6.493Z"/>
  </g>
  <path id="e" data-name="dash" d="M50.332,31.811c-2.259,0-4.097,1.867-4.097,4.126h6.921c2.259,0,4.097-1.867,4.097-4.126h-6.921Z"/>
  <path id="f" data-name="d" class="h" d="M33.212,30.916c-6.022-.088-10.804,5.735-9.544,11.626.715,3.789,3.853,6.932,7.642,7.642,5.896,1.26,11.713-3.517,11.626-9.544,0-4.811,0-14.579.01-19.414.049-1.547,1.323-2.831,2.909-2.996-.963-.71-2.301-1.075-3.561-.895-2.379.272-4.271,2.291-4.222,4.66v18.64c.019,1.926-1.211,3.775-3.001,4.495-3.94,1.673-8.031-2.413-6.358-6.358.72-1.79,2.564-3.021,4.495-3.001,2.685,0,4.864-2.17,4.864-4.864h-4.864l.005.01Z"/>
</svg>