<?xml version="1.0" encoding="UTF-8"?>
<svg id="b" data-name="Opentensor_Foundation_Logotype_Black" xmlns="http://www.w3.org/2000/svg" viewBox="0 0 444.917 121.505">
  <path d="M393.02,89.098c-1.173,0-2.266.402-3.076,1.133-.74.668-1.221,1.755-1.369,2.777v-3.709h-2.437v12.863h2.437v-6.214c0-1.783.669-2.888,1.23-3.5.706-.77,1.659-1.212,2.614-1.212.931,0,1.616.256,2.097.781.568.622.845,1.608.845,3.012v7.133h2.437v-7.634c0-1.827-.429-3.216-1.276-4.127-.803-.864-1.981-1.302-3.501-1.302Z"/>
  <path d="M293.269,89.095c-1.857,0-3.44.674-4.576,1.951-1.067,1.199-1.655,2.861-1.655,4.681s.588,3.483,1.655,4.681c1.136,1.276,2.718,1.951,4.576,1.951s3.44-.674,4.576-1.951c1.067-1.199,1.655-2.861,1.655-4.681s-.588-3.483-1.655-4.681c-1.136-1.276-2.719-1.951-4.576-1.951ZM296.064,98.834c-.687.843-1.654,1.288-2.795,1.288s-2.107-.445-2.795-1.288c-.644-.79-.999-1.893-.999-3.107s.355-2.317.999-3.107c.687-.843,1.654-1.288,2.795-1.288s2.107.445,2.795,1.288c.644.79.999,1.893.999,3.107s-.355,2.317-.999,3.107Z"/>
  <rect x="368.201" y="91.54" width="2.437" height="10.618"/>
  <path d="M369.42,87.314c-.936,0-1.67.733-1.67,1.67s.734,1.67,1.67,1.67,1.67-.733,1.67-1.67-.734-1.67-1.67-1.67Z"/>
  <path d="M353.962,91.54h9.956c1.227,0,2.225-1.014,2.225-2.241h-9.956c-1.227,0-2.225,1.014-2.225,2.241Z"/>
  <path d="M361.242,102.355c.739,0,1.156-.128,1.657-.482-1.407-.148-1.552-.998-1.552-2.556v-5.35c-.001-1.338-1.104-2.426-2.441-2.426v8.552c0,1.701,1.444,2.263,2.336,2.263Z"/>
  <path d="M352.471,99.653v-6.006c0-2.77-1.576-4.412-4.876-4.412-2.955,0-4.95,1.642-5.221,4.118h2.167c.197-1.52,1.256-2.378,3.103-2.378,1.872,0,2.684.981,2.684,2.182,0,.564-.197,1.128-1.182,1.275l-2.684.343c-2.019.27-4.507.907-4.507,3.799,0,2.182,1.625,3.652,4.162,3.652,1.527,0,3.251-.539,4.334-2.133v.294c0,.907.64,1.52,1.822,1.52h1.478v-1.79h-.763c-.296,0-.517-.196-.517-.466ZM350.328,96.442c0,2.427-1.453,4.045-3.669,4.045-1.502,0-2.463-.735-2.463-2.01,0-1.25.813-1.912,2.684-2.206l2.192-.343c.419-.074.837-.147,1.256-.368v.882Z"/>
  <path d="M337.581,92.661c-.225-1.078-.757-1.978-1.545-2.612-.766-.616-1.76-.955-2.8-.955-1.609,0-3.062.669-4.094,1.885-1.023,1.205-1.586,2.891-1.586,4.747s.563,3.541,1.586,4.747c1.031,1.216,2.485,1.885,4.094,1.885,2.177,0,3.83-1.387,4.345-3.63v3.43h2.437v-17.505h-2.437v8.009ZM336.51,98.815c-.712.843-1.696,1.307-2.773,1.307-1.171,0-2.142-.452-2.807-1.307-.604-.776-.936-1.873-.936-3.089s.332-2.313.936-3.089c.665-.855,1.636-1.307,2.807-1.307,1.077,0,2.061.464,2.773,1.307.691.818,1.071,1.914,1.071,3.088s-.38,2.27-1.071,3.088Z"/>
  <path d="M321.5,89.098c-1.173,0-2.266.402-3.076,1.133-.74.668-1.221,1.755-1.369,2.777v-3.709h-2.437v12.863h2.437v-6.214c0-1.783.669-2.888,1.23-3.5.706-.77,1.659-1.212,2.614-1.212.931,0,1.616.256,2.097.781.568.622.845,1.608.845,3.012v7.133h2.437v-7.634c0-1.827-.429-3.216-1.276-4.127-.803-.864-1.981-1.302-3.501-1.302Z"/>
  <path d="M310.257,95.507c0,1.783-.669,2.888-1.23,3.5-.706.77-1.659,1.212-2.614,1.212-.931,0-1.616-.256-2.097-.781-.568-.622-.845-1.608-.845-3.012v-7.133h-2.437v7.634c0,1.827.429,3.216,1.276,4.127.803.864,1.981,1.302,3.501,1.302,1.173,0,2.266-.402,3.076-1.132.74-.668,1.22-1.755,1.369-2.777v3.709h2.437v-12.863h-2.437v6.214Z"/>
  <path d="M378.535,89.095c-1.857,0-3.44.674-4.576,1.951-1.067,1.199-1.655,2.861-1.655,4.681s.588,3.483,1.655,4.681c1.136,1.276,2.718,1.951,4.576,1.951s3.44-.674,4.576-1.951c1.067-1.199,1.655-2.861,1.655-4.681s-.588-3.483-1.655-4.681c-1.136-1.276-2.719-1.951-4.576-1.951ZM381.33,98.834c-.687.843-1.654,1.288-2.795,1.288s-2.107-.445-2.795-1.288c-.644-.79-.999-1.893-.999-3.107s.355-2.317.999-3.107c.687-.843,1.654-1.288,2.795-1.288s2.107.445,2.795,1.288c.644.79.999,1.893.999,3.107s-.355,2.317-.999,3.107Z"/>
  <polygon points="274.375 102.158 277.346 102.158 277.346 94.594 285.573 94.594 285.573 92.188 277.346 92.188 277.346 87.448 286.236 87.448 286.236 84.968 274.375 84.968 274.375 102.158"/>
  <path d="M409.147,43.432c-3.74,0-6.716,1.124-8.844,3.341-1.723,1.794-2.834,4.29-3.236,7.252v-10.026h-6.891v36.364h6.891v-16.766c0-5.259,1.053-8.689,3.313-10.795,1.988-1.851,4.854-2.614,8.764-2.338l.048.003v-7.035h-.044Z"/>
  <path d="M367.24,43.432c-5.251,0-9.725,1.907-12.936,5.515-3.017,3.388-4.679,8.089-4.679,13.234s1.661,9.846,4.679,13.234c3.212,3.608,7.685,5.515,12.936,5.515s9.725-1.907,12.937-5.515c3.017-3.389,4.679-8.089,4.679-13.234s-1.662-9.846-4.679-13.234c-3.212-3.608-7.686-5.515-12.937-5.515ZM375.141,70.965c-1.943,2.382-4.675,3.641-7.901,3.641s-5.958-1.259-7.901-3.641c-1.821-2.233-2.824-5.352-2.824-8.784s1.003-6.551,2.824-8.784c1.943-2.382,4.675-3.641,7.901-3.641s5.958,1.259,7.901,3.641c1.821,2.233,2.824,5.352,2.824,8.784s-1.003,6.551-2.824,8.784Z"/>
  <path d="M341.159,61.976c-2.353-1.537-5.945-2.55-10.983-3.098-3.755-.406-6.149-.981-7.536-1.809-1.146-.684-1.634-1.55-1.634-2.893,0-1.103.564-4.703,7.82-4.703,2.806,0,4.943.726,6.354,2.157,1.338,1.357,1.67,3.024,1.75,3.896l.004.04h6.748l-.003-.047c-.255-3.499-1.663-6.474-4.071-8.603-2.577-2.278-6.232-3.483-10.568-3.483-9.797,0-14.923,5.654-14.923,11.239,0,2.633.905,4.81,2.689,6.471,2.093,1.949,5.397,3.172,9.821,3.634,4.577.469,7.116.946,8.764,1.644,1.752.742,2.532,1.795,2.532,3.413,0,.945-.313,2.301-1.806,3.391-1.513,1.105-3.87,1.665-7.006,1.665-7.273,0-9.315-4.699-9.379-7.183v-.043h-6.751l.002.046c.366,8.278,6.289,13.22,15.844,13.22,4.85,0,8.902-1.142,11.717-3.304,2.792-2.144,4.268-5.206,4.268-8.856,0-2.967-1.194-5.189-3.651-6.794ZM314.701,51.561c.403-1.197,1.037-2.264,1.851-3.199-.836.991-1.453,2.075-1.851,3.199Z"/>
  <path d="M307.338,80.363v-21.583c0-5.165-1.214-9.091-3.608-11.667-2.269-2.442-5.6-3.681-9.899-3.681-3.317,0-6.405,1.137-8.695,3.202-2.093,1.887-3.451,4.961-3.871,7.85v-10.485h-6.891v36.364h6.891v-17.569c0-5.042,1.891-8.164,3.477-9.895,1.996-2.178,4.69-3.427,7.389-3.427,2.631,0,4.57.722,5.927,2.209,1.607,1.759,2.388,4.545,2.388,8.516v20.166h6.891Z"/>
  <path d="M252.752,43.418c-10.33,0-17.544,7.71-17.544,18.749,0,5.196,1.618,9.896,4.555,13.234,3.174,3.608,7.715,5.515,13.132,5.515,4.348,0,7.987-1.312,10.817-3.899,2.439-2.23,4.152-5.328,4.955-8.959l.012-.054h-7.102l-.01.031c-1.383,4.535-4.014,6.558-8.53,6.558-3.112,0-5.802-1.055-7.78-3.051-1.823-1.84-2.967-4.447-3.224-7.346h27.053l.007-.036c.152-.834.213-1.555.213-2.488,0-5.908-1.812-10.739-5.239-13.972-2.927-2.761-6.945-4.281-11.313-4.281ZM242.391,58.438c.847-4.11,3.396-8.98,10.715-8.98,2.645,0,4.913.875,6.558,2.529,1.577,1.586,2.526,3.816,2.746,6.452h-20.019Z"/>
  <path d="M207.072,44.004c-3.469,0-6.291,2.866-6.291,6.335h13.978v24.177c0,4.809,4.082,6.399,6.604,6.399,2.089,0,3.269-.362,4.685-1.364-3.978-.419-4.387-2.821-4.387-7.227l-.003-15.126c0-3.782-3.119-6.858-6.897-6.859h14.168c3.469,0,6.291-2.866,6.291-6.335h-28.146Z"/>
  <path d="M185.005,43.436c-3.317,0-6.405,1.137-8.695,3.202-2.093,1.887-3.451,4.961-3.871,7.85v-10.485h-6.891v36.364h6.891v-17.569c0-5.042,1.891-8.164,3.477-9.895,1.996-2.178,4.69-3.427,7.389-3.427,2.631,0,4.57.722,5.927,2.209,1.607,1.759,2.388,4.545,2.388,8.516v20.166h6.891v-21.583c0-5.165-1.214-9.091-3.608-11.667-2.269-2.442-5.6-3.681-9.899-3.681Z"/>
  <path d="M143.925,43.422c-10.33,0-17.544,7.71-17.544,18.749,0,5.196,1.618,9.896,4.555,13.234,3.174,3.608,7.715,5.515,13.132,5.515,4.348,0,7.987-1.312,10.817-3.899,2.439-2.23,4.152-5.328,4.955-8.959l.012-.054h-7.102l-.01.031c-1.383,4.535-4.014,6.558-8.53,6.558-3.112,0-5.802-1.055-7.78-3.051-1.823-1.84-2.967-4.447-3.225-7.346h27.053l.007-.036c.152-.834.213-1.555.213-2.488,0-5.908-1.812-10.739-5.239-13.972-2.927-2.761-6.945-4.281-11.313-4.281ZM133.565,58.442c.847-4.11,3.396-8.98,10.715-8.98,2.645,0,4.913.874,6.558,2.529,1.577,1.586,2.526,3.816,2.746,6.452h-20.019Z"/>
  <path d="M105.85,43.42c-2.923,0-5.718.96-7.872,2.703-2.216,1.793-3.711,4.342-4.344,7.392v-9.524h-6.853v49.514h6.853v-22.816c1.448,6.351,6.096,10.276,12.215,10.276,4.523,0,8.61-1.895,11.51-5.336,2.875-3.412,4.458-8.184,4.458-13.437s-1.583-10.025-4.458-13.437c-2.899-3.441-6.987-5.336-11.51-5.336ZM112.333,70.936c-1.87,2.42-4.599,3.699-7.892,3.699-3.027,0-5.795-1.314-7.796-3.7-1.941-2.315-3.01-5.419-3.01-8.742s1.069-6.426,3.01-8.742c2.001-2.386,4.769-3.7,7.796-3.7,3.293,0,6.022,1.279,7.892,3.699,1.698,2.197,2.633,5.302,2.633,8.743s-.935,6.546-2.633,8.743Z"/>
  <path d="M58.881,30.845c-13.729,0-23.111,9.658-23.111,25.043,0,15.246,9.382,25.042,23.111,25.042,13.798,0,23.111-9.797,23.111-25.042s-9.314-25.043-23.111-25.043ZM58.881,73.755c-8.969,0-14.419-7.105-14.419-17.868,0-10.9,5.45-17.868,14.419-17.868,9.037,0,14.419,6.968,14.419,17.868,0,10.762-5.381,17.868-14.419,17.868Z"/>
</svg>