<?xml version="1.0" encoding="UTF-8"?><svg id="a" xmlns="http://www.w3.org/2000/svg" viewBox="0 0 283.46 50.39"><path d="M19.17,12.89c-2.94,0-5.75,.96-7.92,2.7-2.23,1.79-3.73,4.34-4.37,7.38V.33H0V49.82H6.89v-9.7c1.46,6.34,6.13,10.26,12.28,10.26,4.55,0,8.66-1.89,11.57-5.33,2.89-3.41,4.48-8.17,4.48-13.42s-1.59-10.01-4.48-13.42c-2.92-3.44-7.03-5.33-11.57-5.33Zm9.17,18.75c0,3.44-.94,6.54-2.65,8.73-1.88,2.42-4.62,3.69-7.94,3.69-3.04,0-5.83-1.31-7.84-3.7-1.95-2.31-3.03-5.41-3.03-8.73s1.07-6.42,3.03-8.73c2.01-2.38,4.8-3.7,7.84-3.7,3.31,0,6.06,1.28,7.94,3.69,1.71,2.19,2.65,5.29,2.65,8.73Z"/><rect x="40.14" y="13.46" width="6.89" height="36.36"/><path d="M43.59,0c-2.65,0-4.72,2.07-4.72,4.72s2.07,4.72,4.72,4.72,4.72-2.07,4.72-4.72-2.07-4.72-4.72-4.72Z"/><path d="M241.51,12.89c-5.25,0-9.72,1.91-12.94,5.51-3.02,3.39-4.68,8.09-4.68,13.23s1.66,9.85,4.68,13.23c3.21,3.61,7.69,5.51,12.94,5.51s9.72-1.91,12.94-5.51c3.02-3.39,4.68-8.09,4.68-13.23s-1.66-9.85-4.68-13.23c-3.21-3.61-7.69-5.51-12.94-5.51Zm-10.72,18.75c0-3.43,1-6.55,2.82-8.78,1.94-2.38,4.68-3.64,7.9-3.64s5.96,1.26,7.9,3.64c1.82,2.23,2.82,5.35,2.82,8.78s-1,6.55-2.82,8.78c-1.94,2.38-4.68,3.64-7.9,3.64s-5.96-1.26-7.9-3.64c-1.82-2.23-2.82-5.35-2.82-8.78Z"/><path d="M283.42,12.89c-3.74,0-6.72,1.12-8.84,3.34-1.72,1.79-2.83,4.29-3.24,7.25V13.46h-6.89V49.82h6.89v-16.77c0-5.26,1.05-8.69,3.31-10.79,1.99-1.85,4.85-2.61,8.76-2.34h.05v-7.03h-.04Z"/><path d="M215.43,31.43c-2.35-1.54-5.95-2.55-10.98-3.1-3.75-.41-6.15-.98-7.54-1.81-1.15-.68-1.63-1.55-1.63-2.89,0-1.1,.56-4.7,7.82-4.7,2.81,0,4.94,.73,6.35,2.16,1.34,1.36,1.67,3.02,1.75,3.9v.04h6.75v-.05c-.26-3.5-1.67-6.47-4.07-8.6-2.58-2.28-6.23-3.48-10.57-3.48-9.8,0-14.92,5.65-14.92,11.24,0,2.63,.9,4.81,2.69,6.47,2.09,1.95,5.4,3.17,9.82,3.63,4.58,.47,7.12,.95,8.76,1.64,1.75,.74,2.53,1.79,2.53,3.41,0,.95-.31,2.3-1.81,3.39-1.51,1.11-3.87,1.67-7.01,1.67-7.27,0-9.32-4.7-9.38-7.18v-.04h-6.75v.05c.37,8.28,6.29,13.22,15.85,13.22,4.85,0,8.9-1.14,11.72-3.3,2.79-2.14,4.27-5.21,4.27-8.86,0-2.97-1.19-5.19-3.65-6.79Zm-26.46-10.41c.4-1.2,1.04-2.26,1.85-3.2-.84,.99-1.45,2.08-1.85,3.2Z"/><path d="M127.03,12.87c-10.33,0-17.54,7.71-17.54,18.75,0,5.2,1.62,9.9,4.55,13.23,3.17,3.61,7.72,5.51,13.13,5.51,4.35,0,7.99-1.31,10.82-3.9,2.44-2.23,4.15-5.33,4.95-8.96v-.05h-7.09v.03c-1.39,4.54-4.02,6.56-8.54,6.56-3.11,0-5.8-1.06-7.78-3.05-1.82-1.84-2.97-4.45-3.22-7.35h27.05v-.04c.16-.83,.22-1.56,.22-2.49,0-5.91-1.81-10.74-5.24-13.97-2.93-2.76-6.94-4.28-11.31-4.28Zm.35,6.04c2.65,0,4.91,.87,6.56,2.53,1.58,1.59,2.53,3.82,2.75,6.45h-20.02c.85-4.11,3.4-8.98,10.71-8.98Z"/><path d="M168.11,12.89c-3.32,0-6.41,1.14-8.7,3.2-2.09,1.89-3.45,4.96-3.87,7.85V13.46h-6.89V49.82h6.89v-17.57c0-5.04,1.89-8.16,3.48-9.89,2-2.18,4.69-3.43,7.39-3.43s4.57,.72,5.93,2.21c1.61,1.76,2.39,4.55,2.39,8.52v20.17h6.89V28.24c0-5.17-1.21-9.09-3.61-11.67-2.27-2.44-5.6-3.68-9.9-3.68Z"/><g><path d="M81.35,13.46c-3.47,0-6.29,2.87-6.29,6.34h28.15c3.47,0,6.29-2.87,6.29-6.34h-28.15Z"/><path d="M57.49,13.46c-3.47,0-6.29,2.87-6.29,6.34h14.6c3.47,0,6.29-2.87,6.29-6.34h-14.6Z"/><path d="M95.93,41.78v-15.13c0-3.78-3.12-6.86-6.9-6.86v24.18c0,4.81,4.08,6.4,6.6,6.4,2.09,0,3.27-.36,4.69-1.36-3.98-.42-4.39-2.82-4.39-7.23Z"/><path d="M72.05,41.78v-15.13c0-3.78-3.12-6.86-6.9-6.86v24.18c0,4.81,4.08,6.4,6.6,6.4,2.09,0,3.27-.36,4.69-1.36-3.98-.42-4.39-2.82-4.39-7.23Z"/></g></svg>